<svg width="25" height="25" viewBox="0 0 25 25" fill="none" xmlns="http://www.w3.org/2000/svg">
<path d="M13 14.0422L5.27772 21.7645C5.14033 21.9019 4.97154 21.9755 4.77134 21.9853C4.57115 21.9951 4.39254 21.9215 4.23552 21.7645C4.07851 21.6075 4 21.4338 4 21.2434C4 21.053 4.07851 20.8793 4.23552 20.7223L11.9578 13L4.23552 5.27772C4.09814 5.14033 4.02453 4.97154 4.01472 4.77134C4.00491 4.57115 4.07851 4.39254 4.23552 4.23552C4.39254 4.07851 4.56624 4 4.75662 4C4.94701 4 5.12071 4.07851 5.27772 4.23552L13 11.9578L20.7223 4.23552C20.8597 4.09814 21.0289 4.02453 21.2301 4.01472C21.4293 4.00491 21.6075 4.07851 21.7645 4.23552C21.9215 4.39254 22 4.56624 22 4.75662C22 4.94701 21.9215 5.12071 21.7645 5.27772L14.0422 13L21.7645 20.7223C21.9019 20.8597 21.9755 21.0289 21.9853 21.2301C21.9951 21.4293 21.9215 21.6075 21.7645 21.7645C21.6075 21.9215 21.4338 22 21.2434 22C21.053 22 20.8793 21.9215 20.7223 21.7645L13 14.0422Z" fill="#1A1A1A"/>
</svg>
