<svg width="580" height="67" viewBox="0 0 580 67" fill="none" xmlns="http://www.w3.org/2000/svg">
<g clip-path="url(#clip0_115_1058)">
<path d="M146.655 54.2289V6.2229H132.917C121.078 6.2229 116.939 8.77853 115.828 19.6376H114.936V3.40125H188.657V19.6376H187.765C186.986 8.87354 182.628 6.2229 170.675 6.2229H156.823V54.2289C156.823 60.4898 158.722 62.1714 166.318 62.1714V62.9694H137.275V62.1714C144.756 62.1714 146.655 60.4898 146.655 54.2289Z" fill="#11110F"/>
<path d="M166.992 63.6439H136.582V61.4873H137.266C144.339 61.4873 145.962 60.1287 145.962 54.2289V6.90689H132.908C120.917 6.90689 117.537 9.53852 116.493 19.7041L116.426 20.3121H114.233V2.71716H189.322V20.3216H187.11L187.062 19.6851C186.331 9.65253 182.809 6.90689 170.647 6.90689H157.478V54.2289C157.478 60.1287 159.13 61.4873 166.289 61.4873H166.973V63.6439H166.992ZM142.791 62.2853H160.735C157.279 61.3163 156.14 58.9601 156.14 54.2289V5.53881H170.675C181.888 5.53881 186.483 8.04695 187.983 15.8564V4.08524H115.619V16.3314C117.224 8.04695 121.619 5.53881 132.927 5.53881H147.348V54.2194C147.348 58.9506 146.218 61.2973 142.801 62.2758L142.791 62.2853Z" fill="#1D1D1B"/>
<path d="M199.272 59.7868V44.4339H200.164C200.838 57.2311 214.13 60.9363 227.194 60.9363C242.612 60.9363 249.419 55.6445 249.419 48.9372C249.419 43.9114 245.394 40.4627 235.568 38.1731L218.364 34.2019C205.405 31.1997 199.708 25.7275 199.708 18.8491C199.708 9.6716 210.323 2.52722 229.311 2.52722C240.144 2.52722 248.859 4.56033 254.11 6.05191V20.5212H253.217C252.657 8.25603 240.59 5.33937 229.425 5.33937C215.459 5.33937 208.756 10.1086 208.756 16.1889C208.756 21.5757 214.12 24.5684 224.061 26.8675L241.15 30.8387C254.442 33.9264 258.686 39.5792 258.686 46.011C258.686 56.8606 246.172 63.7485 227.184 63.7485C215.791 63.834 205.405 61.4589 199.262 59.7773L199.272 59.7868Z" fill="#11110F"/>
<path d="M226.567 64.442C218.051 64.442 208.813 63.1024 199.091 60.4422L198.588 60.3092V43.7499H200.81L200.847 44.3959C201.569 58.1906 217.671 60.2522 227.203 60.2522C240.694 60.2522 248.755 56.0245 248.755 48.9371C248.755 44.1014 244.644 40.9852 235.425 38.8381L218.222 34.8669C205.49 31.9217 199.034 26.5349 199.034 18.849C199.034 8.52199 210.921 1.84314 229.32 1.84314C237.637 1.84314 246.049 3.0402 254.309 5.39633L254.802 5.53884V21.2052H252.581L252.552 20.5591C252.248 13.9278 247.995 6.03286 229.444 6.03286C217.12 6.03286 209.459 9.92807 209.459 16.2079C209.459 20.8346 213.873 23.8273 224.231 26.2214L241.321 30.1926C253.473 33.0143 259.388 38.2016 259.388 46.03C259.388 57.2216 246.751 64.4515 227.203 64.4515C226.994 64.4515 226.785 64.4515 226.576 64.4515L226.567 64.442ZM199.946 59.2642C209.601 61.8578 218.791 63.1309 227.184 63.0739C245.906 63.0739 258.011 56.376 258.011 46.0205C258.011 38.9141 252.448 34.1639 240.998 31.5037L223.909 27.5325C216.076 25.7274 208.082 22.9628 208.082 16.1889C208.082 7.68595 219.105 4.65529 229.425 4.65529C243.201 4.65529 251.413 8.95902 253.426 17.139V6.56489C245.451 4.33227 237.333 3.20171 229.311 3.20171C212.013 3.20171 200.392 9.49104 200.392 18.8395C200.392 25.8034 206.487 30.7437 218.516 33.5273L235.719 37.4985C245.669 39.8167 250.103 43.3413 250.103 48.9276C250.103 56.8701 241.539 61.6108 227.194 61.6108C207.427 61.6108 201.503 53.8964 199.946 47.6451V59.2547V59.2642Z" fill="#1D1D1B"/>
<path d="M274.218 52.8989L305.947 2.5177H306.84L340.126 55.2835C343.477 60.6703 346.155 61.9909 349.952 62.1619V62.9599H322.249V62.1619H323.587C328.277 62.1619 330.062 60.7463 330.062 58.7227C330.062 57.4021 329.17 55.635 327.936 53.6969L321.907 43.9019H283.817L277.892 53.5164C276.772 55.369 276.107 56.8701 276.107 58.1907C276.107 60.4803 278.12 62.1619 282.478 62.1619H283.703V62.9599H262.483V62.1619C266.613 62.0764 269.746 59.9577 274.209 52.8989H274.218ZM320.132 41.1658L302.928 13.6333L285.611 41.1658H320.132Z" fill="#11110F"/>
<path d="M350.636 63.6439H321.574V61.4873H323.597C327.442 61.4873 329.397 60.5562 329.397 58.7321C329.397 57.4116 328.249 55.4355 327.385 54.0674L321.546 44.5859H284.215L278.49 53.8774C277.313 55.8345 276.8 57.1265 276.8 58.2001C276.8 60.2902 278.87 61.4873 282.487 61.4873H284.395V63.6439H261.809V61.4968L262.474 61.4778C266.005 61.4018 268.968 59.9102 273.639 52.5283L305.567 1.83362H307.21L340.695 54.9224C343.999 60.2332 346.506 61.3258 349.981 61.4873L350.626 61.5158V63.6439H350.636ZM327.859 62.2853H346.591C344.218 61.4778 342.044 59.6537 339.556 55.654L306.46 3.20169H306.317L274.797 53.2693C271.531 58.4376 268.835 61.1833 265.749 62.2853H278.661C276.591 61.5538 275.433 60.1382 275.433 58.2001C275.433 56.87 275.993 55.3595 277.322 53.1743L283.446 43.2273H322.296L328.524 53.3454C330.062 55.7775 330.746 57.4401 330.746 58.7321C330.746 60.0242 330.157 61.4968 327.85 62.2853H327.859ZM321.356 41.8497H284.377L302.928 12.3507L321.356 41.8497ZM286.845 40.4817H318.897L302.918 14.9158L286.845 40.4817Z" fill="#1D1D1B"/>
<path d="M370.061 11.5147V52.6329C370.061 60.1288 372.187 62.1619 379.336 62.1619V62.9599H356.997V62.1619C364.146 62.1619 366.263 60.1288 366.263 52.6329V12.8447C366.263 6.13739 364.146 4.19929 356.437 4.19929V3.40125H375.767L412.072 53.0794L446.915 3.40125H465.125V4.19929C457.53 4.19929 455.631 5.87138 455.631 12.1417V54.2289C455.631 60.4898 457.53 62.1714 465.011 62.1714V62.9694H436.082V62.1714C443.678 62.1714 445.577 60.4898 445.577 54.2289V11.6097L409.053 63.7579H408.16L370.07 11.5242L370.061 11.5147Z" fill="#11110F"/>
<path d="M409.404 64.4419H407.809L407.6 64.1664L370.744 13.6142V52.6423C370.744 59.6727 372.51 61.4873 379.336 61.4873H380.02V63.6439H356.313V61.4873H356.997C363.823 61.4873 365.589 59.6727 365.589 52.6423V12.8447C365.589 6.51737 363.709 4.88328 356.437 4.88328H355.753V2.72666H376.108L412.053 51.9203L446.554 2.71716H465.799V4.87378H465.115C457.947 4.87378 456.305 6.23235 456.305 12.1322V54.2194C456.305 60.1192 457.928 61.4778 465.001 61.4778H465.685V63.6344H435.389V61.4778H436.073C443.241 61.4778 444.883 60.1192 444.883 54.2194V13.7662L409.395 64.4324L409.404 64.4419ZM408.502 63.0739H408.692L446.26 9.44352V54.2289C446.26 58.9601 445.121 61.3068 441.665 62.2853H459.495C456.077 61.3163 454.947 58.9601 454.947 54.2289V12.1322C454.947 7.40091 456.086 5.05429 459.542 4.07574H447.266L412.072 54.2479L375.415 4.07574H361.943C365.674 5.11129 366.946 7.67643 366.946 12.8352V52.6328C366.946 58.3616 365.703 61.1833 362.029 62.2758H374.295C370.63 61.1833 369.377 58.3711 369.377 52.6328V9.42452L408.493 63.0739H408.502Z" fill="#1D1D1B"/>
<path d="M59.585 0V2.58414C78.6396 4.38923 93.327 16.5879 93.327 32.5677C93.327 47.4835 78.6396 60.5657 59.585 62.5323V65.145C87.0514 63.5299 108.517 49.5641 108.517 32.5772C108.517 15.5903 87.0514 1.61509 59.585 0Z" fill="#1D1D1B"/>
<path d="M48.9325 62.5323C29.8779 60.5752 15.1905 47.4835 15.1905 32.5677C15.1905 16.5879 29.8779 4.38923 48.9325 2.58414V0C21.4661 1.61509 0 15.5808 0 32.5677C0 49.5546 21.4661 63.5299 48.9325 65.1355V62.5228V62.5323Z" fill="#1D1D1B"/>
<path d="M530.585 1V3.58414C549.64 5.38923 564.327 17.5879 564.327 33.5677C564.327 48.4835 549.64 61.5657 530.585 63.5323V66.145C558.051 64.5299 579.517 50.5641 579.517 33.5772C579.517 16.5903 558.051 2.61509 530.585 1Z" fill="#1D1D1B"/>
<path d="M519.933 63.5323C500.878 61.5752 486.191 48.4835 486.191 33.5677C486.191 17.5879 500.878 5.38923 519.933 3.58414V1C492.466 2.61509 471 16.5808 471 33.5677C471 50.5546 492.466 64.5299 519.933 66.1355V63.5228V63.5323Z" fill="#1D1D1B"/>
</g>
<defs>
<clipPath id="clip0_115_1058">
<rect width="580" height="67" fill="white"/>
</clipPath>
</defs>
</svg>
