<svg width="200" height="23" viewBox="0 0 200 23" fill="none" xmlns="http://www.w3.org/2000/svg">
<g clip-path="url(#clip0_115_1221)">
<path d="M50.7457 18.8979V2.16856H45.9921C41.8955 2.16856 40.4632 3.05916 40.0788 6.84339H39.77V1.18526H65.2792V6.84339H64.9704C64.701 3.09227 63.1932 2.16856 59.0571 2.16856H54.2641V18.8979C54.2641 21.0797 54.9211 21.6658 57.5493 21.6658V21.9439H47.5V21.6658C50.0887 21.6658 50.7457 21.0797 50.7457 18.8979Z" fill="#11110F"/>
<path d="M57.7824 22.1789H47.2601V21.4274H47.4966C49.9441 21.4274 50.5058 20.9539 50.5058 18.8979V2.40694H45.9887C41.8396 2.40694 40.6701 3.32403 40.3087 6.86656L40.2857 7.07845H39.5269V0.946884H65.5091V7.08176H64.7437L64.7272 6.85994C64.4743 3.36375 63.2555 2.40694 59.0472 2.40694H54.4907V18.8979C54.4907 20.9539 55.0623 21.4274 57.5393 21.4274H57.7759V22.1789H57.7824ZM49.4086 21.7055H55.6175C54.4217 21.3678 54.0275 20.5467 54.0275 18.8979V1.93019H59.0571C62.9368 1.93019 64.5269 2.80423 65.0459 5.5257V1.42364H40.0065V5.69123C40.5617 2.80423 42.0827 1.93019 45.9953 1.93019H50.9855V18.8946C50.9855 20.5434 50.5945 21.3612 49.4119 21.7022L49.4086 21.7055Z" fill="#1D1D1B"/>
<path d="M68.952 20.8348V15.4845H69.2608C69.4941 19.9442 74.0933 21.2354 78.6136 21.2354C83.9487 21.2354 86.3042 19.3912 86.3042 17.0538C86.3042 15.3024 84.9113 14.1006 81.5111 13.3027L75.5585 11.9188C71.0742 10.8726 69.1031 8.9656 69.1031 6.56859C69.1031 3.37038 72.7759 0.880669 79.3462 0.880669C83.0946 0.880669 86.1104 1.58918 87.927 2.10897V7.15129H87.6182C87.4244 2.87707 83.249 1.86066 79.3857 1.86066C74.5532 1.86066 72.2339 3.52267 72.2339 5.64157C72.2339 7.51879 74.09 8.56168 77.5295 9.36289L83.4428 10.7468C88.042 11.8228 89.5105 13.7927 89.5105 16.0341C89.5105 19.815 85.1807 22.2153 78.6104 22.2153C74.6682 22.2451 71.0742 21.4174 68.9487 20.8314L68.952 20.8348Z" fill="#11110F"/>
<path d="M78.3967 22.457C75.4499 22.457 72.2534 21.9902 68.8894 21.0632L68.7153 21.0168V15.2461H69.4841L69.4972 15.4713C69.7469 20.2785 75.3185 20.997 78.6168 20.997C83.285 20.997 86.0741 19.5237 86.0741 17.0538C86.0741 15.3686 84.6516 14.2827 81.4617 13.5345L75.509 12.1506C71.1036 11.1242 68.8697 9.24701 68.8697 6.56859C68.8697 2.96977 72.9827 0.642292 79.3494 0.642292C82.2272 0.642292 85.1378 1.05945 87.9959 1.88052L88.1667 1.93019V7.38966H87.398L87.3881 7.16453C87.283 4.85361 85.8113 2.10235 79.3921 2.10235C75.1279 2.10235 72.4768 3.45977 72.4768 5.64819C72.4768 7.26054 74.0044 8.30344 77.5885 9.13776L83.5018 10.5217C87.7068 11.505 89.7534 13.3127 89.7534 16.0407C89.7534 19.9408 85.3809 22.4603 78.6168 22.4603C78.5445 22.4603 78.4722 22.4603 78.4 22.4603L78.3967 22.457ZM69.1851 20.6527C72.5261 21.5565 75.7061 22.0001 78.6102 21.9803C85.0885 21.9803 89.2771 19.6462 89.2771 16.0374C89.2771 13.561 87.352 11.9056 83.3901 10.9786L77.4768 9.59464C74.7666 8.9656 72.0005 8.00216 72.0005 5.64157C72.0005 2.67842 75.8145 1.62228 79.3855 1.62228C84.1523 1.62228 86.9939 3.12207 87.6904 5.97265V2.28775C84.9308 1.50972 82.122 1.11573 79.3461 1.11573C73.3605 1.11573 69.3395 3.30747 69.3395 6.56528C69.3395 8.99208 71.4486 10.7137 75.6109 11.6837L81.5636 13.0677C85.0064 13.8755 86.5406 15.1038 86.5406 17.0505C86.5406 19.8183 83.5774 21.4704 78.6135 21.4704C71.7738 21.4704 69.7239 18.7821 69.1851 16.6036V20.6493V20.6527Z" fill="#1D1D1B"/>
<path d="M94.8851 18.4344L105.864 0.877357H106.173L117.691 19.2654C118.85 21.1427 119.777 21.6028 121.091 21.6624V21.9405H111.505V21.6624H111.968C113.591 21.6624 114.208 21.1691 114.208 20.4639C114.208 20.0037 113.9 19.3879 113.473 18.7125L111.386 15.2991H98.2064L96.1565 18.6496C95.7689 19.2952 95.5389 19.8183 95.5389 20.2785C95.5389 21.0764 96.2354 21.6624 97.7432 21.6624H98.167V21.9405H90.8247V21.6624C92.2537 21.6326 93.3378 20.8943 94.8819 18.4344H94.8851ZM110.772 14.3456L104.819 4.75097L98.8273 14.3456H110.772Z" fill="#11110F"/>
<path d="M121.327 22.1789H111.271V21.4274H111.971C113.302 21.4274 113.978 21.1029 113.978 20.4673C113.978 20.0071 113.581 19.3184 113.282 18.8417L111.261 15.5375H98.3443L96.3633 18.7754C95.956 19.4575 95.7786 19.9077 95.7786 20.2818C95.7786 21.0102 96.4947 21.4274 97.7464 21.4274H98.4067V22.1789H90.5913V21.4307L90.8213 21.4241C92.0433 21.3976 93.0683 20.8778 94.6846 18.3053L105.733 0.638981H106.301L117.888 19.1396C119.031 20.9904 119.898 21.3711 121.101 21.4274L121.324 21.4373V22.1789H121.327ZM113.446 21.7055H119.928C119.106 21.4241 118.354 20.7884 117.493 19.3946L106.041 1.11573H105.992L95.0854 18.5636C93.9553 20.3646 93.0223 21.3214 91.9546 21.7055H96.4225C95.7063 21.4506 95.3055 20.9572 95.3055 20.2818C95.3055 19.8183 95.4993 19.2919 95.9592 18.5304L98.0782 15.0641H111.521L113.676 18.59C114.208 19.4376 114.445 20.017 114.445 20.4673C114.445 20.9175 114.241 21.4307 113.443 21.7055H113.446ZM111.196 14.584H98.4001L104.819 4.30402L111.196 14.584ZM99.2543 14.1072H110.345L104.816 5.19793L99.2543 14.1072Z" fill="#1D1D1B"/>
<path d="M128.048 4.01267V18.3417C128.048 20.9539 128.784 21.6624 131.258 21.6624V21.9405H123.528V21.6624C126.002 21.6624 126.734 20.9539 126.734 18.3417V4.47618C126.734 2.13877 126.002 1.46337 123.334 1.46337V1.18526H130.023L142.585 18.4973L154.641 1.18526H160.942V1.46337C158.314 1.46337 157.657 2.04606 157.657 4.23118V18.8979C157.657 21.0797 158.314 21.6658 160.903 21.6658V21.9439H150.893V21.6658C153.521 21.6658 154.178 21.0797 154.178 18.8979V4.04578L141.54 22.2187H141.231L128.051 4.01598L128.048 4.01267Z" fill="#11110F"/>
<path d="M141.662 22.457H141.11L141.038 22.361L128.285 4.74435V18.345C128.285 20.795 128.896 21.4274 131.258 21.4274H131.495V22.1789H123.291V21.4274H123.528C125.89 21.4274 126.501 20.795 126.501 18.345V4.47618C126.501 2.2712 125.851 1.70174 123.334 1.70174H123.098V0.950195H130.141L142.579 18.0934L154.517 0.946884H161.176V1.69843H160.939C158.459 1.69843 157.891 2.17187 157.891 4.22787V18.8946C157.891 20.9506 158.452 21.4241 160.9 21.4241H161.136V22.1756H150.654V21.4241H150.89C153.37 21.4241 153.939 20.9506 153.939 18.8946V4.79732L141.659 22.4537L141.662 22.457ZM141.35 21.9803H141.416L154.415 3.29092V18.8979C154.415 20.5467 154.021 21.3645 152.825 21.7055H158.995C157.812 21.3678 157.421 20.5467 157.421 18.8979V4.22787C157.421 2.5791 157.815 1.76134 159.011 1.42033H154.763L142.585 18.9046L129.901 1.42033H125.24C126.531 1.7812 126.971 2.67511 126.971 4.47287V18.3417C126.971 20.3381 126.541 21.3214 125.269 21.7022H129.514C128.245 21.3214 127.812 20.3414 127.812 18.3417V3.2843L141.347 21.9803H141.35Z" fill="#1D1D1B"/>
<path d="M181.528 0.0993233C171.327 0.0993233 163.055 5.22441 163.055 11.548C163.055 17.8716 171.324 22.9967 181.528 22.9967C191.731 22.9967 200 17.8716 200 11.548C200 5.22441 191.731 0.0993233 181.528 0.0993233ZM181.528 21.8611C174.182 21.8611 168.229 17.2425 168.229 11.548C168.229 5.85346 174.182 1.23492 181.528 1.23492C188.873 1.23492 194.826 5.85346 194.826 11.548C194.826 17.2425 188.873 21.8611 181.528 21.8611Z" fill="#11110F"/>
<path d="M20.6177 0V0.900533C27.211 1.52958 32.2931 5.78062 32.2931 11.3494C32.2931 16.5473 27.211 21.1062 20.6177 21.7916V22.702C30.1216 22.1392 37.5493 17.2723 37.5493 11.3527C37.5493 5.43299 30.1216 0.562833 20.6177 0Z" fill="#1D1D1B"/>
<path d="M16.9317 21.7916C10.3384 21.1095 5.25624 16.5473 5.25624 11.3494C5.25624 5.78062 10.3384 1.52958 16.9317 0.900533V0C7.42773 0.562833 0 5.42968 0 11.3494C0 17.269 7.42773 22.1392 16.9317 22.6987V21.7883V21.7916Z" fill="#1D1D1B"/>
</g>
<defs>
<clipPath id="clip0_115_1221">
<rect width="200" height="23" fill="white"/>
</clipPath>
</defs>
</svg>
